<svg width="443" height="453" viewBox="0 0 443 453" fill="none" xmlns="http://www.w3.org/2000/svg">
<rect x="49" y="47" width="357.66" height="357.66" rx="15" fill="url(#paint0_linear_3_196)"/>
<g clip-path="url(#clip0_3_196)">
<path d="M266.389 139.496C267.197 140.337 267.857 141.309 268.339 142.371L268.397 142.313L350.025 326.193L349.945 326.273C351.459 329.206 348.926 335.174 343.737 340.37C338.548 345.559 332.58 348.092 329.647 346.578L329.574 346.651L145.694 265.016L145.752 264.95C144.682 264.441 143.7 263.822 142.877 262.993C131.51 251.625 149.944 214.763 184.041 180.659C218.151 146.555 255.013 128.128 266.389 139.496V139.496Z" fill="#DD2E44"/>
<path d="M256.389 172.333L347.972 321.572L350.025 326.193L349.945 326.273C351.459 329.206 348.926 335.174 343.737 340.37C342.048 342.058 340.294 343.339 338.577 344.424L227.278 208.722L256.389 172.333Z" fill="#EA596E"/>
<path d="M183.524 180.091C149.537 214.093 130.665 250.337 141.393 261.049C152.113 271.777 188.356 252.913 222.365 218.926C256.36 184.924 275.224 148.666 264.504 137.946C253.776 127.226 217.533 146.09 183.524 180.091V180.091Z" fill="#A0041E"/>
<path d="M215.706 184.043C216.448 184.645 217.303 185.094 218.22 185.362C219.137 185.631 220.098 185.715 221.048 185.608C227.365 184.924 232.678 182.726 236.397 179.255C240.334 175.579 242.277 170.645 241.746 165.703C240.814 157.028 232.11 149.066 217.271 150.667C211.5 151.286 208.923 149.43 208.836 148.542C208.734 147.662 210.852 145.296 216.623 144.671C222.94 143.986 228.253 141.789 231.979 138.317C235.916 134.642 237.867 129.707 237.328 124.766C236.382 116.091 227.685 108.129 212.86 109.737C208.654 110.188 206.434 109.322 205.495 108.762C204.746 108.303 204.447 107.867 204.418 107.612C204.331 106.731 206.42 104.366 212.206 103.74C213.156 103.639 214.077 103.351 214.917 102.892C215.756 102.434 216.496 101.814 217.095 101.069C217.694 100.324 218.14 99.468 218.408 98.5501C218.675 97.6322 218.759 96.6705 218.654 95.7202C218.553 94.7698 218.266 93.8487 217.808 93.0097C217.35 92.1707 216.732 91.4304 215.987 90.8312C215.242 90.232 214.387 89.7859 213.469 89.5183C212.552 89.2508 211.591 89.1671 210.641 89.2721C195.816 90.8659 189.004 100.494 189.943 109.177C190.889 117.866 199.586 125.814 214.425 124.22C218.632 123.761 220.83 124.635 221.776 125.195C222.525 125.646 222.831 126.09 222.86 126.338C222.955 127.226 220.852 129.584 215.066 130.21C200.241 131.811 193.429 141.432 194.368 150.114C195.307 158.789 204.003 166.751 218.836 165.143C223.042 164.692 225.255 165.565 226.201 166.118C226.958 166.584 227.249 167.021 227.278 167.268C227.372 168.149 225.269 170.514 219.491 171.14C218.06 171.294 216.707 171.87 215.602 172.793C214.498 173.716 213.693 174.946 213.288 176.327C212.883 177.708 212.896 179.179 213.327 180.552C213.757 181.925 214.585 183.14 215.706 184.043V184.043Z" fill="#AA8DD8"/>
<path d="M127.856 251.348C113.497 247.294 103.592 253.699 101.234 262.105C98.876 270.503 103.985 281.136 118.337 285.175C123.941 286.747 125.622 289.426 125.396 290.277C125.149 291.136 122.303 292.548 116.714 290.968C102.362 286.929 92.457 293.334 90.099 301.732C87.7264 310.138 92.85 320.756 107.209 324.803C112.806 326.375 114.494 329.06 114.247 329.912C114.006 330.763 111.168 332.175 105.572 330.603C104.643 330.316 103.666 330.218 102.699 330.314C101.732 330.411 100.794 330.7 99.9409 331.165C99.0874 331.63 98.3357 332.261 97.73 333.021C97.1244 333.781 96.6772 334.655 96.4147 335.591C96.1522 336.526 96.0797 337.505 96.2017 338.469C96.3236 339.434 96.6374 340.364 97.1246 341.204C97.6118 342.045 98.2625 342.78 99.0382 343.366C99.814 343.951 100.699 344.375 101.642 344.613C115.986 348.652 125.898 342.262 128.271 333.849C130.629 325.451 125.513 314.832 111.146 310.786C105.542 309.207 103.861 306.536 104.109 305.677C104.342 304.825 107.18 303.406 112.769 304.978C127.136 309.025 137.033 302.635 139.399 294.214C141.764 285.816 136.648 275.197 122.289 271.144C116.699 269.579 115.018 266.886 115.251 266.042C115.498 265.183 118.329 263.771 123.926 265.343C124.862 265.659 125.851 265.78 126.835 265.701C127.819 265.621 128.776 265.342 129.649 264.881C130.522 264.42 131.292 263.786 131.912 263.018C132.532 262.25 132.989 261.364 133.256 260.414C133.523 259.464 133.594 258.469 133.464 257.49C133.335 256.512 133.007 255.57 132.502 254.722C131.997 253.874 131.325 253.138 130.526 252.558C129.727 251.978 128.819 251.566 127.856 251.348V251.348Z" fill="#7355B2"/>
<path d="M183.604 231.72C185.111 231.718 186.58 231.248 187.809 230.376C189.039 229.504 189.967 228.272 190.467 226.851C190.966 225.429 191.013 223.887 190.6 222.438C190.187 220.988 189.334 219.703 188.16 218.758C186.573 217.485 148.729 187.762 95.2444 195.411C94.2768 195.521 93.3409 195.823 92.4923 196.301C91.6437 196.778 90.8996 197.421 90.3041 198.192C89.7085 198.962 89.2736 199.844 89.0251 200.786C88.7766 201.727 88.7196 202.709 88.8575 203.673C88.9953 204.637 89.3252 205.564 89.8276 206.398C90.33 207.232 90.9947 207.957 91.7824 208.529C92.57 209.102 93.4645 209.511 94.4129 209.731C95.3614 209.952 96.3445 209.98 97.304 209.814C144.559 203.104 178.72 229.857 179.055 230.126C180.346 231.159 181.951 231.721 183.604 231.72V231.72Z" fill="#AA8DD8"/>
<path d="M309.124 201.444C310.258 201.444 311.377 201.179 312.39 200.67C313.404 200.161 314.285 199.422 314.962 198.512C315.639 197.602 316.095 196.547 316.292 195.429C316.488 194.312 316.421 193.165 316.096 192.078C307.85 164.619 300.376 120.799 309.56 109.373C310.586 108.078 312.137 106.804 315.688 107.073C322.515 107.597 321.867 122 321.86 122.146C321.767 123.11 321.868 124.083 322.157 125.007C322.445 125.932 322.915 126.79 323.539 127.531C324.164 128.271 324.929 128.88 325.792 129.321C326.654 129.761 327.596 130.026 328.562 130.098C329.528 130.17 330.498 130.049 331.417 129.741C332.335 129.433 333.183 128.945 333.91 128.305C334.638 127.666 335.23 126.887 335.653 126.016C336.075 125.144 336.32 124.197 336.372 123.23C337.121 113.194 333.999 93.8643 316.78 92.5616C309.095 91.9794 302.712 94.6503 298.207 100.254C280.951 121.731 298.469 183.992 302.152 196.263C302.602 197.761 303.524 199.074 304.78 200.008C306.036 200.941 307.559 201.445 309.124 201.444Z" fill="#77B255"/>
<path d="M165.417 165.056C159.388 165.056 154.5 160.168 154.5 154.139C154.5 148.11 159.388 143.222 165.417 143.222C171.446 143.222 176.333 148.11 176.333 154.139C176.333 160.168 171.446 165.056 165.417 165.056Z" fill="#5C913B"/>
<path d="M336.444 230.556C328.406 230.556 321.889 224.039 321.889 216C321.889 207.961 328.406 201.444 336.444 201.444C344.483 201.444 351 207.961 351 216C351 224.039 344.483 230.556 336.444 230.556Z" fill="#9266CC"/>
<path d="M114.472 237.833C108.443 237.833 103.556 232.946 103.556 226.917C103.556 220.888 108.443 216 114.472 216C120.501 216 125.389 220.888 125.389 226.917C125.389 232.946 120.501 237.833 114.472 237.833Z" fill="#5C913B"/>
<path d="M179.972 325.167C173.943 325.167 169.056 320.279 169.056 314.25C169.056 308.221 173.943 303.333 179.972 303.333C186.001 303.333 190.889 308.221 190.889 314.25C190.889 320.279 186.001 325.167 179.972 325.167Z" fill="#73DDFF"/>
<path d="M147.222 128.667C139.183 128.667 132.667 122.15 132.667 114.111C132.667 106.072 139.183 99.5555 147.222 99.5555C155.261 99.5555 161.778 106.072 161.778 114.111C161.778 122.15 155.261 128.667 147.222 128.667Z" fill="#FFF84D"/>
<path d="M114.472 157.778C108.443 157.778 103.556 152.89 103.556 146.861C103.556 140.832 108.443 135.944 114.472 135.944C120.501 135.944 125.389 140.832 125.389 146.861C125.389 152.89 120.501 157.778 114.472 157.778Z" fill="#FFCC4D"/>
<path d="M136.306 186.889C130.276 186.889 125.389 182.001 125.389 175.972C125.389 169.943 130.276 165.056 136.306 165.056C142.335 165.056 147.222 169.943 147.222 175.972C147.222 182.001 142.335 186.889 136.306 186.889Z" fill="#FFCC4D"/>
<path d="M296.417 266.944C290.388 266.944 285.5 262.057 285.5 256.028C285.5 249.999 290.388 245.111 296.417 245.111C302.446 245.111 307.333 249.999 307.333 256.028C307.333 262.057 302.446 266.944 296.417 266.944Z" fill="#FFCC4D"/>
</g>
<line x1="442" y1="405" x2="1" y2="405" stroke="white" stroke-width="26"/>
<line x1="442.005" y1="52.4793" x2="0.995056" y2="52.4793" stroke="white" stroke-width="26"/>
<line x1="394" y1="453" x2="394" y2="-5.68248e-07" stroke="white" stroke-width="26"/>
<line x1="51" y1="453" x2="51" y2="-5.68248e-07" stroke="white" stroke-width="26"/>
<defs>
<linearGradient id="paint0_linear_3_196" x1="49" y1="47" x2="406.66" y2="404.66" gradientUnits="userSpaceOnUse">
<stop stop-color="#7BC9F5"/>
<stop offset="1" stop-color="#1B5DDD"/>
</linearGradient>
<clipPath id="clip0_3_196">
<rect width="262" height="262" fill="white" transform="matrix(-1 0 0 1 351 85)"/>
</clipPath>
</defs>
</svg>
