<svg width="410" height="393" viewBox="0 0 410 393" fill="none" xmlns="http://www.w3.org/2000/svg">
<rect width="357.66" height="357.66" rx="53" fill="url(#paint0_linear_2_132)"/>
<circle cx="91.5958" cy="91.5958" r="29.4851" fill="#FFF500"/>
<line x1="93.3638" y1="57.5745" x2="93.3638" y2="34.8936" stroke="#FFF500"/>
<line x1="93.3638" y1="152.834" x2="93.3638" y2="130.153" stroke="black"/>
<line x1="120.727" y1="68.7225" x2="136.765" y2="52.6848" stroke="#FFF500"/>
<line x1="52.6848" y1="136.765" x2="68.7226" y2="120.727" stroke="#FFF500"/>
<line x1="116.898" y1="120.727" x2="132.936" y2="136.765" stroke="#FFF500"/>
<line x1="48.8557" y1="52.6848" x2="64.8935" y2="68.7226" stroke="#FFF500"/>
<line x1="93.3638" y1="152.834" x2="93.3638" y2="130.153" stroke="#FFF500"/>
<line x1="148.298" y1="89.8277" x2="125.617" y2="89.8277" stroke="#FFF500"/>
<line x1="57.5744" y1="89.8277" x2="34.8936" y2="89.8277" stroke="#FFF500"/>
<path d="M126.489 233.351C126.489 247.804 121.06 248.617 111.223 248.617C101.387 248.617 95.9574 247.804 95.9574 233.351C95.9574 218.898 101.387 196.277 111.223 196.277C121.06 196.277 126.489 218.898 126.489 233.351Z" fill="#5C913B"/>
<path d="M126.489 233.351C126.489 247.804 121.06 248.617 111.223 248.617C101.387 248.617 95.9574 247.804 95.9574 233.351C95.9574 218.898 101.387 196.277 111.223 196.277C121.06 196.277 126.489 218.898 126.489 233.351Z" stroke="black"/>
<line x1="49.6596" y1="257.34" x2="49.6596" y2="226.809" stroke="#402804"/>
<path d="M61.0638 220.266C61.0638 234.719 56.4099 235.532 47.9787 235.532C39.5476 235.532 34.8936 234.719 34.8936 220.266C34.8936 205.813 39.5476 183.191 47.9787 183.191C56.4099 183.191 61.0638 205.813 61.0638 220.266Z" fill="#5C913B"/>
<path d="M61.0638 220.266C61.0638 234.719 56.4099 235.532 47.9787 235.532C39.5476 235.532 34.8936 234.719 34.8936 220.266C34.8936 205.813 39.5476 183.191 47.9787 183.191C56.4099 183.191 61.0638 205.813 61.0638 220.266Z" stroke="black"/>
<path d="M161.383 242.074C161.383 256.528 157.505 257.34 150.479 257.34C143.453 257.34 139.574 256.528 139.574 242.074C139.574 227.621 143.453 205 150.479 205C157.505 205 161.383 227.621 161.383 242.074Z" fill="#5C913B"/>
<path d="M161.383 242.074C161.383 256.528 157.505 257.34 150.479 257.34C143.453 257.34 139.574 256.528 139.574 242.074C139.574 227.621 143.453 205 150.479 205C157.505 205 161.383 227.621 161.383 242.074Z" stroke="black"/>
<line x1="152.16" y1="287.872" x2="152.16" y2="257.34" stroke="#402804"/>
<line x1="112.904" y1="279.149" x2="112.904" y2="248.617" stroke="#402804"/>
<path d="M60.9793 261.335L0 205.981V282.571V291V306.5L0.0548886 307.36C0.979896 321.852 7.6447 335.377 18.5731 344.939C25.7073 351.181 34.4846 355.243 43.8608 356.64L46.5 357.033L83 358L243.369 357.033H299.847C308.412 357.033 316.427 352.816 321.277 345.757L335.455 325.121L262.227 288.682C254.247 284.711 245.212 283.382 236.427 284.886L175.401 295.336L152.519 284.234C144.435 280.312 135.797 277.651 126.907 276.344L77.306 269.051C71.2186 268.156 65.5351 265.47 60.9793 261.335Z" fill="url(#paint1_linear_2_132)"/>
<g clip-path="url(#clip0_2_132)">
<path d="M332.528 202.557C333.268 203.327 333.872 204.217 334.314 205.19L334.367 205.136L409.107 373.502L409.034 373.575C410.42 376.26 408.101 381.725 403.35 386.483C398.598 391.234 393.134 393.553 390.449 392.167L390.382 392.233L222.017 317.486L222.07 317.427C221.09 316.96 220.191 316.394 219.438 315.634C209.029 305.225 225.908 271.474 257.128 240.247C288.361 209.021 322.112 192.149 332.528 202.557V202.557Z" fill="#DD2E44"/>
<path d="M323.372 232.624L407.228 369.27L409.107 373.502L409.034 373.575C410.42 376.26 408.101 381.725 403.35 386.483C401.804 388.029 400.198 389.201 398.625 390.194L296.717 265.943L323.372 232.624Z" fill="#EA596E"/>
<path d="M256.655 239.728C225.535 270.86 208.256 304.046 218.078 313.855C227.894 323.677 261.079 306.405 292.219 275.285C323.345 244.152 340.617 210.954 330.802 201.138C320.979 191.322 287.794 208.595 256.655 239.728V239.728Z" fill="#A0041E"/>
<path d="M286.122 243.346C286.801 243.897 287.583 244.308 288.423 244.554C289.263 244.8 290.143 244.876 291.013 244.779C296.797 244.152 301.661 242.14 305.067 238.961C308.672 235.596 310.451 231.078 309.964 226.553C309.111 218.61 301.142 211.32 287.554 212.786C282.27 213.353 279.911 211.653 279.831 210.84C279.738 210.034 281.677 207.868 286.961 207.295C292.745 206.669 297.61 204.657 301.022 201.478C304.627 198.113 306.413 193.595 305.919 189.07C305.053 181.127 297.09 173.837 283.516 175.31C279.664 175.723 277.632 174.93 276.772 174.417C276.086 173.997 275.813 173.597 275.786 173.364C275.706 172.557 277.619 170.392 282.916 169.819C283.787 169.726 284.63 169.462 285.399 169.042C286.167 168.622 286.845 168.055 287.393 167.373C287.942 166.691 288.35 165.907 288.595 165.066C288.84 164.226 288.917 163.345 288.82 162.475C288.728 161.605 288.465 160.762 288.046 159.993C287.627 159.225 287.06 158.547 286.379 157.999C285.697 157.45 284.914 157.042 284.074 156.797C283.234 156.552 282.353 156.475 281.484 156.571C267.91 158.031 261.672 166.847 262.532 174.796C263.398 182.753 271.361 190.03 284.949 188.57C288.8 188.151 290.813 188.95 291.679 189.463C292.365 189.876 292.645 190.283 292.672 190.509C292.759 191.322 290.833 193.481 285.535 194.055C271.961 195.521 265.724 204.33 266.584 212.28C267.443 220.223 275.406 227.513 288.987 226.04C292.839 225.627 294.864 226.427 295.731 226.933C296.424 227.36 296.69 227.76 296.717 227.986C296.803 228.792 294.878 230.958 289.587 231.531C288.276 231.673 287.038 232.199 286.027 233.045C285.016 233.89 284.278 235.017 283.907 236.281C283.536 237.546 283.549 238.892 283.943 240.149C284.337 241.407 285.095 242.519 286.122 243.346V243.346Z" fill="#AA8DD8"/>
<path d="M205.684 304.972C192.536 301.26 183.467 307.124 181.308 314.821C179.149 322.511 183.827 332.247 196.968 335.945C202.099 337.384 203.638 339.837 203.432 340.616C203.205 341.403 200.6 342.695 195.482 341.249C182.341 337.551 173.272 343.415 171.113 351.105C168.94 358.802 173.631 368.524 186.779 372.229C191.903 373.668 193.449 376.127 193.223 376.907C193.003 377.686 190.404 378.979 185.28 377.54C184.429 377.277 183.535 377.187 182.65 377.275C181.764 377.364 180.906 377.629 180.124 378.054C179.343 378.48 178.654 379.058 178.1 379.754C177.545 380.45 177.136 381.25 176.895 382.106C176.655 382.963 176.589 383.859 176.7 384.742C176.812 385.625 177.099 386.477 177.545 387.247C177.992 388.017 178.587 388.689 179.298 389.225C180.008 389.761 180.818 390.15 181.681 390.368C194.815 394.066 203.891 388.215 206.064 380.512C208.223 372.822 203.538 363.1 190.384 359.395C185.253 357.949 183.714 355.503 183.94 354.717C184.153 353.937 186.752 352.638 191.87 354.077C205.024 357.782 214.087 351.931 216.253 344.221C218.418 336.531 213.734 326.809 200.586 323.097C195.468 321.665 193.929 319.199 194.142 318.426C194.369 317.64 196.961 316.347 202.086 317.786C202.942 318.075 203.848 318.186 204.749 318.113C205.65 318.041 206.527 317.786 207.326 317.363C208.125 316.941 208.83 316.361 209.398 315.658C209.965 314.954 210.384 314.143 210.629 313.273C210.873 312.403 210.938 311.492 210.819 310.596C210.7 309.7 210.4 308.838 209.938 308.061C209.475 307.285 208.86 306.61 208.128 306.079C207.397 305.548 206.565 305.172 205.684 304.972V304.972Z" fill="#7355B2"/>
<path d="M256.728 287C258.108 286.998 259.453 286.568 260.579 285.77C261.704 284.971 262.554 283.843 263.012 282.542C263.469 281.24 263.512 279.828 263.134 278.501C262.755 277.174 261.975 275.997 260.899 275.132C259.447 273.966 224.795 246.751 175.824 253.755C174.938 253.855 174.081 254.132 173.304 254.569C172.527 255.006 171.846 255.595 171.3 256.301C170.755 257.006 170.357 257.814 170.129 258.676C169.902 259.538 169.85 260.437 169.976 261.32C170.102 262.202 170.404 263.051 170.864 263.814C171.324 264.578 171.933 265.242 172.654 265.766C173.375 266.29 174.194 266.665 175.063 266.867C175.931 267.069 176.831 267.094 177.71 266.942C220.977 260.798 252.257 285.294 252.563 285.541C253.745 286.486 255.214 287.001 256.728 287V287Z" fill="#AA8DD8"/>
<path d="M371.657 259.279C372.696 259.279 373.72 259.036 374.648 258.57C375.576 258.104 376.383 257.427 377.003 256.594C377.623 255.761 378.04 254.794 378.22 253.771C378.4 252.749 378.339 251.698 378.041 250.703C370.491 225.561 363.647 185.438 372.057 174.976C372.996 173.79 374.416 172.624 377.668 172.871C383.918 173.35 383.325 186.538 383.319 186.671C383.234 187.554 383.326 188.445 383.59 189.291C383.854 190.138 384.285 190.923 384.856 191.602C385.428 192.28 386.129 192.837 386.919 193.241C387.709 193.644 388.571 193.886 389.455 193.952C390.34 194.018 391.228 193.907 392.069 193.625C392.91 193.344 393.686 192.897 394.352 192.311C395.018 191.726 395.561 191.013 395.948 190.215C396.335 189.417 396.558 188.55 396.606 187.664C397.292 178.475 394.434 160.776 378.667 159.583C371.63 159.05 365.786 161.496 361.661 166.627C345.862 186.291 361.901 243.299 365.273 254.534C365.686 255.906 366.53 257.109 367.68 257.964C368.83 258.818 370.224 259.279 371.657 259.279Z" fill="#77B255"/>
<path d="M240.075 225.96C234.555 225.96 230.08 221.485 230.08 215.965C230.08 210.444 234.555 205.969 240.075 205.969C245.596 205.969 250.071 210.444 250.071 215.965C250.071 221.485 245.596 225.96 240.075 225.96Z" fill="#5C913B"/>
<path d="M396.673 285.934C389.312 285.934 383.345 279.967 383.345 272.606C383.345 265.246 389.312 259.279 396.673 259.279C404.033 259.279 410 265.246 410 272.606C410 279.967 404.033 285.934 396.673 285.934Z" fill="#9266CC"/>
<path d="M193.429 292.598C187.909 292.598 183.434 288.122 183.434 282.602C183.434 277.082 187.909 272.606 193.429 272.606C198.95 272.606 203.425 277.082 203.425 282.602C203.425 288.122 198.95 292.598 193.429 292.598Z" fill="#5C913B"/>
<path d="M253.403 372.562C247.882 372.562 243.407 368.087 243.407 362.566C243.407 357.046 247.882 352.571 253.403 352.571C258.923 352.571 263.398 357.046 263.398 362.566C263.398 368.087 258.923 372.562 253.403 372.562Z" fill="#73DDFF"/>
<path d="M223.416 192.642C216.056 192.642 210.089 186.675 210.089 179.314C210.089 171.954 216.056 165.987 223.416 165.987C230.777 165.987 236.744 171.954 236.744 179.314C236.744 186.675 230.777 192.642 223.416 192.642Z" fill="#FFF84D"/>
<path d="M193.429 219.297C187.909 219.297 183.434 214.822 183.434 209.301C183.434 203.781 187.909 199.306 193.429 199.306C198.95 199.306 203.425 203.781 203.425 209.301C203.425 214.822 198.95 219.297 193.429 219.297Z" fill="#FFCC4D"/>
<path d="M213.421 245.952C207.9 245.952 203.425 241.476 203.425 235.956C203.425 230.436 207.9 225.96 213.421 225.96C218.941 225.96 223.416 230.436 223.416 235.956C223.416 241.476 218.941 245.952 213.421 245.952Z" fill="#FFCC4D"/>
<path d="M360.022 319.252C354.502 319.252 350.027 314.777 350.027 309.257C350.027 303.736 354.502 299.261 360.022 299.261C365.543 299.261 370.018 303.736 370.018 309.257C370.018 314.777 365.543 319.252 360.022 319.252Z" fill="#FFCC4D"/>
</g>
<defs>
<linearGradient id="paint0_linear_2_132" x1="0" y1="0" x2="357.66" y2="357.66" gradientUnits="userSpaceOnUse">
<stop stop-color="#7BC9F5"/>
<stop offset="1" stop-color="#1B5DDD"/>
</linearGradient>
<linearGradient id="paint1_linear_2_132" x1="167.727" y1="205.981" x2="167.727" y2="357.034" gradientUnits="userSpaceOnUse">
<stop stop-color="#0C6B0F"/>
<stop offset="1" stop-color="#86A84E"/>
</linearGradient>
<clipPath id="clip0_2_132">
<rect width="239.894" height="239.894" fill="white" transform="matrix(-1 0 0 1 410 152.66)"/>
</clipPath>
</defs>
</svg>
